<svg width="79" height="79" viewBox="0 0 79 79" fill="none" xmlns="http://www.w3.org/2000/svg">
<path d="M48.6768 53.3245L53.5851 48.4175L57.3097 52.1447L52.4027 57.0504L48.6768 53.3245Z" fill="#B0BDC6"/>
<path d="M49.8606 52.1449L52.4054 49.6001L56.1326 53.3234L53.5878 55.8682L49.8606 52.1449Z" fill="#DFE9EF"/>
<path d="M48.5879 53.318L53.4949 48.4097L55.0398 49.9545L50.1327 54.8641L48.5879 53.318Z" fill="#B0BDC6"/>
<path d="M51.859 9.65486C40.2918 -1.9123 21.3988 -1.9123 9.70312 9.65486C-1.99256 21.222 -1.86403 40.115 9.70312 51.8107C21.2703 63.3779 40.1633 63.3779 51.859 51.8107C63.5546 40.115 63.5546 21.222 51.859 9.65486ZM49.16 48.9832C39.0066 59.1366 22.684 59.1366 12.6592 48.9832C2.50578 38.8298 2.50578 22.5072 12.6592 12.4824C22.8126 2.32899 39.1351 2.32899 49.16 12.4824C59.1848 22.5072 59.1848 38.8298 49.16 48.9832Z" fill="#679DEF"/>
<path d="M49.8029 11.7107C39.3925 1.30022 22.4274 1.30022 11.8884 11.7107C1.47796 22.1211 1.47796 39.0863 11.8884 49.6252C22.2988 60.0357 39.264 60.0357 49.8029 49.6252C60.2134 39.2148 60.2134 22.2496 49.8029 11.7107ZM48.3892 48.2114C38.7499 57.8507 22.9415 57.8507 13.3022 48.2114C3.66286 38.5722 3.66286 22.7637 13.3022 13.1244C22.9415 3.48513 38.7499 3.48513 48.3892 13.1244C58.0285 22.7637 58.0285 38.5722 48.3892 48.2114Z" fill="#B0BDC6"/>
<path opacity="0.6" d="M44.9186 36.6447C36.5646 44.9988 22.9411 44.9988 14.587 36.6447C12.4021 34.4598 10.7313 31.8893 9.70309 29.0618C9.189 35.2309 11.2454 41.5286 15.8722 46.1555C24.2263 54.5095 37.8498 54.5095 46.2039 46.1555C52.373 39.9863 53.9153 30.9896 51.0878 23.4067C50.5737 28.2906 48.5173 32.9175 44.9186 36.6447Z" fill="#015BE4"/>
<path d="M49.7769 58.4878L58.6836 49.5811L76.407 67.3032L67.5003 76.2099L49.7769 58.4878Z" fill="#333333"/>
<path d="M51.7776 56.4892L56.6833 51.5796L74.4068 69.2992L69.501 74.2075L51.7776 56.4892Z" fill="#575B5E"/>
<path d="M78.078 66.3336C79.4918 67.7474 68.0532 79.3146 66.5109 77.9008L65.6112 77.0011C64.1974 75.5874 75.6361 64.0202 77.1784 65.434L78.078 66.3336Z" fill="#B0BDC6"/>
<path d="M76.1501 68.2624C77.5639 69.6761 69.981 77.3876 68.4387 75.9738L67.539 75.0741C66.1252 73.6604 73.7082 65.9489 75.2504 67.3627L76.1501 68.2624Z" fill="#DFE9EF"/>
</svg>
