<svg width="332" height="39" viewBox="0 0 332 39" fill="none" xmlns="http://www.w3.org/2000/svg">
<path d="M1.13733 37.1762C0.805325 37.3328 0.663139 37.7289 0.819749 38.0609C0.976359 38.3929 1.37246 38.5351 1.70447 38.3785L1.13733 37.1762ZM331.099 37.7773L326.693 31.493L323.454 38.4508L331.099 37.7773ZM1.70447 38.3785C2.86853 37.8294 4.03578 37.2859 5.20618 36.7482L4.65115 35.5402C3.47671 36.0799 2.30542 36.6252 1.13733 37.1762L1.70447 38.3785ZM12.2588 33.5932C14.6181 32.566 16.9898 31.5618 19.3734 30.5807L18.8674 29.3515C16.4755 30.3359 14.0957 31.3436 11.7282 32.3743L12.2588 33.5932ZM26.5473 27.7122C28.9458 26.781 31.3559 25.8731 33.7773 24.9888L33.3213 23.7401C30.8914 24.6275 28.473 25.5385 26.0662 26.4729L26.5473 27.7122ZM41.0611 22.4116C43.4948 21.5779 45.9395 20.768 48.3949 19.9819L47.9896 18.7158C45.5257 19.5046 43.0725 20.3174 40.6304 21.1539L41.0611 22.4116ZM55.7769 17.7004C58.2419 16.9657 60.7171 16.255 63.2024 15.5685L62.8485 14.2871C60.3546 14.976 57.8707 15.6892 55.3972 16.4264L55.7769 17.7004ZM70.6708 13.5863C73.1629 12.9517 75.6647 12.3414 78.1759 11.7555L77.8739 10.4609C75.354 11.0488 72.8435 11.6613 70.3428 12.2981L70.6708 13.5863ZM85.7184 10.0758C88.2336 9.54217 90.7578 9.03304 93.2908 8.54864L93.0411 7.24296C90.4994 7.72902 87.9664 8.23992 85.4425 8.77539L85.7184 10.0758ZM100.894 7.17362C103.429 6.74155 105.972 6.33418 108.523 5.95175L108.326 4.63709C105.766 5.02084 103.214 5.42962 100.671 5.86318L100.894 7.17362ZM116.175 4.88281C118.724 4.55264 121.282 4.24733 123.847 3.96714L123.702 2.64565C121.128 2.92681 118.562 3.23316 116.004 3.56447L116.175 4.88281ZM131.535 3.20475C134.095 2.97654 136.663 2.77333 139.238 2.59536L139.146 1.26917C136.563 1.44775 133.986 1.65166 131.417 1.88065L131.535 3.20475ZM146.949 2.13907C149.517 2.01264 152.091 1.91128 154.671 1.83524L154.632 0.506465C152.043 0.582771 149.46 0.684474 146.884 0.811334L146.949 2.13907ZM162.395 1.68362C163.682 1.671 164.97 1.66467 166.26 1.66467V0.335326C164.966 0.335326 163.673 0.341671 162.382 0.354331L162.395 1.68362ZM166.26 1.66467C167.55 1.66467 168.838 1.671 170.125 1.68362L170.138 0.354331C168.847 0.341671 167.554 0.335326 166.26 0.335326V1.66467ZM177.849 1.83524C180.429 1.91128 183.003 2.01264 185.571 2.13907L185.636 0.811333C183.06 0.684473 180.477 0.58277 177.888 0.506465L177.849 1.83524ZM193.282 2.59536C195.857 2.77333 198.425 2.97654 200.986 3.20475L201.104 1.88065C198.534 1.65166 195.957 1.44775 193.374 1.26917L193.282 2.59536ZM208.674 3.96714C211.239 4.24733 213.796 4.55264 216.345 4.88281L216.516 3.56447C213.958 3.23316 211.392 2.9268 208.818 2.64565L208.674 3.96714ZM223.998 5.95175C226.549 6.33418 229.091 6.74155 231.626 7.17362L231.849 5.86318C229.306 5.42962 226.754 5.02084 224.195 4.63709L223.998 5.95175ZM239.229 8.54864C241.762 9.03304 244.287 9.54217 246.802 10.0758L247.078 8.77539C244.554 8.23992 242.021 7.72902 239.479 7.24296L239.229 8.54864ZM254.344 11.7555C256.856 12.3414 259.357 12.9517 261.849 13.5863L262.177 12.2981C259.677 11.6613 257.166 11.0488 254.646 10.4609L254.344 11.7555ZM269.318 15.5685C271.803 16.255 274.278 16.9657 276.743 17.7004L277.123 16.4264C274.65 15.6892 272.166 14.976 269.672 14.2871L269.318 15.5685ZM284.125 19.9819C286.581 20.768 289.025 21.5779 291.459 22.4115L291.89 21.1539C289.448 20.3174 286.995 19.5046 284.531 18.7158L284.125 19.9819ZM298.743 24.9888C301.164 25.8731 303.574 26.781 305.973 27.7122L306.454 26.4729C304.047 25.5385 301.629 24.6275 299.199 23.7401L298.743 24.9888ZM313.147 30.5808C315.53 31.5618 317.902 32.5661 320.261 33.5932L320.792 32.3743C318.425 31.3436 316.045 30.3359 313.653 29.3515L313.147 30.5808ZM1.13733 37.1762C0.805325 37.3328 0.663139 37.7289 0.819749 38.0609C0.976359 38.3929 1.37246 38.5351 1.70447 38.3785L1.13733 37.1762ZM331.099 37.7773L326.693 31.493L323.454 38.4508L331.099 37.7773ZM1.70447 38.3785C2.86853 37.8294 4.03578 37.2859 5.20618 36.7482L4.65115 35.5402C3.47671 36.0799 2.30542 36.6252 1.13733 37.1762L1.70447 38.3785ZM12.2588 33.5932C14.6181 32.566 16.9898 31.5618 19.3734 30.5807L18.8674 29.3515C16.4755 30.3359 14.0957 31.3436 11.7282 32.3743L12.2588 33.5932ZM26.5473 27.7122C28.9458 26.781 31.3559 25.8731 33.7773 24.9888L33.3213 23.7401C30.8914 24.6275 28.473 25.5385 26.0662 26.4729L26.5473 27.7122ZM41.0611 22.4116C43.4948 21.5779 45.9395 20.768 48.3949 19.9819L47.9896 18.7158C45.5257 19.5046 43.0725 20.3174 40.6304 21.1539L41.0611 22.4116ZM55.7769 17.7004C58.2419 16.9657 60.7171 16.255 63.2024 15.5685L62.8485 14.2871C60.3546 14.976 57.8707 15.6892 55.3972 16.4264L55.7769 17.7004ZM70.6708 13.5863C73.1629 12.9517 75.6647 12.3414 78.1759 11.7555L77.8739 10.4609C75.354 11.0488 72.8435 11.6613 70.3428 12.2981L70.6708 13.5863ZM85.7184 10.0758C88.2336 9.54217 90.7578 9.03304 93.2908 8.54864L93.0411 7.24296C90.4994 7.72902 87.9664 8.23992 85.4425 8.77539L85.7184 10.0758ZM100.894 7.17362C103.429 6.74155 105.972 6.33418 108.523 5.95175L108.326 4.63709C105.766 5.02084 103.214 5.42962 100.671 5.86318L100.894 7.17362ZM116.175 4.88281C118.724 4.55264 121.282 4.24733 123.847 3.96714L123.702 2.64565C121.128 2.92681 118.562 3.23316 116.004 3.56447L116.175 4.88281ZM131.535 3.20475C134.095 2.97654 136.663 2.77333 139.238 2.59536L139.146 1.26917C136.563 1.44775 133.986 1.65166 131.417 1.88065L131.535 3.20475ZM146.949 2.13907C149.517 2.01264 152.091 1.91128 154.671 1.83524L154.632 0.506465C152.043 0.582771 149.46 0.684474 146.884 0.811334L146.949 2.13907ZM162.395 1.68362C163.682 1.671 164.97 1.66467 166.26 1.66467V0.335326C164.966 0.335326 163.673 0.341671 162.382 0.354331L162.395 1.68362ZM166.26 1.66467C167.55 1.66467 168.838 1.671 170.125 1.68362L170.138 0.354331C168.847 0.341671 167.554 0.335326 166.26 0.335326V1.66467ZM177.849 1.83524C180.429 1.91128 183.003 2.01264 185.571 2.13907L185.636 0.811333C183.06 0.684473 180.477 0.58277 177.888 0.506465L177.849 1.83524ZM193.282 2.59536C195.857 2.77333 198.425 2.97654 200.986 3.20475L201.104 1.88065C198.534 1.65166 195.957 1.44775 193.374 1.26917L193.282 2.59536ZM208.674 3.96714C211.239 4.24733 213.796 4.55264 216.345 4.88281L216.516 3.56447C213.958 3.23316 211.392 2.9268 208.818 2.64565L208.674 3.96714ZM223.998 5.95175C226.549 6.33418 229.091 6.74155 231.626 7.17362L231.849 5.86318C229.306 5.42962 226.754 5.02084 224.195 4.63709L223.998 5.95175ZM239.229 8.54864C241.762 9.03304 244.287 9.54217 246.802 10.0758L247.078 8.77539C244.554 8.23992 242.021 7.72902 239.479 7.24296L239.229 8.54864ZM254.344 11.7555C256.856 12.3414 259.357 12.9517 261.849 13.5863L262.177 12.2981C259.677 11.6613 257.166 11.0488 254.646 10.4609L254.344 11.7555ZM269.318 15.5685C271.803 16.255 274.278 16.9657 276.743 17.7004L277.123 16.4264C274.65 15.6892 272.166 14.976 269.672 14.2871L269.318 15.5685ZM284.125 19.9819C286.581 20.768 289.025 21.5779 291.459 22.4115L291.89 21.1539C289.448 20.3174 286.995 19.5046 284.531 18.7158L284.125 19.9819ZM298.743 24.9888C301.164 25.8731 303.574 26.781 305.973 27.7122L306.454 26.4729C304.047 25.5385 301.629 24.6275 299.199 23.7401L298.743 24.9888ZM313.147 30.5808C315.53 31.5618 317.902 32.5661 320.261 33.5932L320.792 32.3743C318.425 31.3436 316.045 30.3359 313.653 29.3515L313.147 30.5808Z" fill="#AFAFAF"/>
</svg>
