<svg width="331" height="39" viewBox="0 0 331 39" fill="none" xmlns="http://www.w3.org/2000/svg">
<path d="M0.900026 1.75863C0.56802 1.60202 0.425834 1.20592 0.582444 0.873913C0.739054 0.541908 1.13516 0.399723 1.46716 0.556332L0.900026 1.75863ZM330.862 1.15748L326.456 7.44184L323.217 0.483986L330.862 1.15748ZM1.46716 0.556332C2.63122 1.10543 3.79847 1.64888 4.96887 2.18666L4.41385 3.3946C3.2394 2.85496 2.06811 2.30963 0.900026 1.75863L1.46716 0.556332ZM12.0215 5.34165C14.3808 6.36876 16.7525 7.373 19.136 8.35406L18.6301 9.58336C16.2382 8.59889 13.8584 7.59118 11.4909 6.56051L12.0215 5.34165ZM26.31 11.2227C28.7085 12.1538 31.1186 13.0617 33.54 13.946L33.084 15.1947C30.6541 14.3073 28.2357 13.3963 25.8289 12.4619L26.31 11.2227ZM40.8238 16.5233C43.2575 17.3569 45.7022 18.1669 48.1576 18.9529L47.7523 20.219C45.2884 19.4302 42.8352 18.6174 40.3931 17.7809L40.8238 16.5233ZM55.5396 21.2344C58.0045 21.9691 60.4798 22.6798 62.9651 23.3664L62.6112 24.6477C60.1172 23.9588 57.6334 23.2456 55.1599 22.5084L55.5396 21.2344ZM70.4335 25.3485C72.9256 25.9831 75.4274 26.5934 77.9386 27.1793L77.6366 28.4739C75.1167 27.886 72.6062 27.2735 70.1055 26.6367L70.4335 25.3485ZM85.4811 28.859C87.9963 29.3926 90.5205 29.9018 93.0535 30.3862L92.8038 31.6919C90.262 31.2058 87.7291 30.6949 85.2052 30.1594L85.4811 28.859ZM100.657 31.7612C103.192 32.1933 105.734 32.6006 108.285 32.9831L108.088 34.2977C105.528 33.914 102.977 33.5052 100.434 33.0716L100.657 31.7612ZM115.937 34.052C118.487 34.3822 121.044 34.6875 123.609 34.9677L123.465 36.2892C120.891 36.008 118.325 35.7017 115.767 35.3703L115.937 34.052ZM131.297 35.7301C133.858 35.9583 136.426 36.1615 139.001 36.3395L138.909 37.6656C136.325 37.4871 133.749 37.2832 131.179 37.0542L131.297 35.7301ZM146.712 36.7957C149.279 36.9222 151.853 37.0235 154.434 37.0996L154.395 38.4283C151.806 38.352 149.223 38.2503 146.647 38.1235L146.712 36.7957ZM162.158 37.2512C163.445 37.2638 164.733 37.2701 166.023 37.2701V38.5995C164.729 38.5995 163.436 38.5931 162.145 38.5805L162.158 37.2512ZM166.023 37.2701C167.313 37.2701 168.601 37.2638 169.888 37.2512L169.901 38.5805C168.61 38.5931 167.317 38.5995 166.023 38.5995V37.2701ZM177.612 37.0996C180.192 37.0235 182.766 36.9222 185.333 36.7957L185.399 38.1235C182.823 38.2503 180.24 38.352 177.651 38.4283L177.612 37.0996ZM193.045 36.3395C195.62 36.1615 198.188 35.9583 200.748 35.7301L200.866 37.0542C198.297 37.2832 195.72 37.4871 193.136 37.6656L193.045 36.3395ZM208.436 34.9677C211.001 34.6875 213.559 34.3822 216.108 34.052L216.279 35.3703C213.721 35.7017 211.154 36.008 208.581 36.2892L208.436 34.9677ZM223.76 32.9831C226.311 32.6006 228.854 32.1933 231.388 31.7612L231.612 33.0716C229.069 33.5052 226.517 33.914 223.957 34.2977L223.76 32.9831ZM238.992 30.3862C241.525 29.9018 244.049 29.3926 246.564 28.859L246.84 30.1594C244.317 30.6949 241.784 31.2058 239.242 31.6919L238.992 30.3862ZM254.107 27.1793C256.618 26.5934 259.12 25.9831 261.612 25.3485L261.94 26.6367C259.439 27.2735 256.929 27.886 254.409 28.4739L254.107 27.1793ZM269.08 23.3664C271.566 22.6798 274.041 21.9691 276.506 21.2344L276.886 22.5084C274.412 23.2456 271.928 23.9588 269.434 24.6477L269.08 23.3664ZM283.888 18.9529C286.343 18.1669 288.788 17.3569 291.222 16.5233L291.653 17.7809C289.21 18.6174 286.757 19.4302 284.293 20.219L283.888 18.9529ZM298.506 13.946C300.927 13.0617 303.337 12.1538 305.736 11.2226L306.217 12.4619C303.81 13.3963 301.391 14.3073 298.962 15.1947L298.506 13.946ZM312.91 8.35406C315.293 7.37299 317.665 6.36876 320.024 5.34165L320.555 6.56051C318.187 7.59118 315.807 8.59889 313.416 9.58335L312.91 8.35406ZM0.900026 1.75863C0.56802 1.60202 0.425834 1.20592 0.582444 0.873913C0.739054 0.541908 1.13516 0.399723 1.46716 0.556332L0.900026 1.75863ZM330.862 1.15748L326.456 7.44184L323.217 0.483986L330.862 1.15748ZM1.46716 0.556332C2.63122 1.10543 3.79847 1.64888 4.96887 2.18666L4.41385 3.3946C3.2394 2.85496 2.06811 2.30963 0.900026 1.75863L1.46716 0.556332ZM12.0215 5.34165C14.3808 6.36876 16.7525 7.373 19.136 8.35406L18.6301 9.58336C16.2382 8.59889 13.8584 7.59118 11.4909 6.56051L12.0215 5.34165ZM26.31 11.2227C28.7085 12.1538 31.1186 13.0617 33.54 13.946L33.084 15.1947C30.6541 14.3073 28.2357 13.3963 25.8289 12.4619L26.31 11.2227ZM40.8238 16.5233C43.2575 17.3569 45.7022 18.1669 48.1576 18.9529L47.7523 20.219C45.2884 19.4302 42.8352 18.6174 40.3931 17.7809L40.8238 16.5233ZM55.5396 21.2344C58.0045 21.9691 60.4798 22.6798 62.9651 23.3664L62.6112 24.6477C60.1172 23.9588 57.6334 23.2456 55.1599 22.5084L55.5396 21.2344ZM70.4335 25.3485C72.9256 25.9831 75.4274 26.5934 77.9386 27.1793L77.6366 28.4739C75.1167 27.886 72.6062 27.2735 70.1055 26.6367L70.4335 25.3485ZM85.4811 28.859C87.9963 29.3926 90.5205 29.9018 93.0535 30.3862L92.8038 31.6919C90.262 31.2058 87.7291 30.6949 85.2052 30.1594L85.4811 28.859ZM100.657 31.7612C103.192 32.1933 105.734 32.6006 108.285 32.9831L108.088 34.2977C105.528 33.914 102.977 33.5052 100.434 33.0716L100.657 31.7612ZM115.937 34.052C118.487 34.3822 121.044 34.6875 123.609 34.9677L123.465 36.2892C120.891 36.008 118.325 35.7017 115.767 35.3703L115.937 34.052ZM131.297 35.7301C133.858 35.9583 136.426 36.1615 139.001 36.3395L138.909 37.6656C136.325 37.4871 133.749 37.2832 131.179 37.0542L131.297 35.7301ZM146.712 36.7957C149.279 36.9222 151.853 37.0235 154.434 37.0996L154.395 38.4283C151.806 38.352 149.223 38.2503 146.647 38.1235L146.712 36.7957ZM162.158 37.2512C163.445 37.2638 164.733 37.2701 166.023 37.2701V38.5995C164.729 38.5995 163.436 38.5931 162.145 38.5805L162.158 37.2512ZM166.023 37.2701C167.313 37.2701 168.601 37.2638 169.888 37.2512L169.901 38.5805C168.61 38.5931 167.317 38.5995 166.023 38.5995V37.2701ZM177.612 37.0996C180.192 37.0235 182.766 36.9222 185.333 36.7957L185.399 38.1235C182.823 38.2503 180.24 38.352 177.651 38.4283L177.612 37.0996ZM193.045 36.3395C195.62 36.1615 198.188 35.9583 200.748 35.7301L200.866 37.0542C198.297 37.2832 195.72 37.4871 193.136 37.6656L193.045 36.3395ZM208.436 34.9677C211.001 34.6875 213.559 34.3822 216.108 34.052L216.279 35.3703C213.721 35.7017 211.154 36.008 208.581 36.2892L208.436 34.9677ZM223.76 32.9831C226.311 32.6006 228.854 32.1933 231.388 31.7612L231.612 33.0716C229.069 33.5052 226.517 33.914 223.957 34.2977L223.76 32.9831ZM238.992 30.3862C241.525 29.9018 244.049 29.3926 246.564 28.859L246.84 30.1594C244.317 30.6949 241.784 31.2058 239.242 31.6919L238.992 30.3862ZM254.107 27.1793C256.618 26.5934 259.12 25.9831 261.612 25.3485L261.94 26.6367C259.439 27.2735 256.929 27.886 254.409 28.4739L254.107 27.1793ZM269.08 23.3664C271.566 22.6798 274.041 21.9691 276.506 21.2344L276.886 22.5084C274.412 23.2456 271.928 23.9588 269.434 24.6477L269.08 23.3664ZM283.888 18.9529C286.343 18.1669 288.788 17.3569 291.222 16.5233L291.653 17.7809C289.21 18.6174 286.757 19.4302 284.293 20.219L283.888 18.9529ZM298.506 13.946C300.927 13.0617 303.337 12.1538 305.736 11.2226L306.217 12.4619C303.81 13.3963 301.391 14.3073 298.962 15.1947L298.506 13.946ZM312.91 8.35406C315.293 7.37299 317.665 6.36876 320.024 5.34165L320.555 6.56051C318.187 7.59118 315.807 8.59889 313.416 9.58335L312.91 8.35406Z" fill="#AFAFAF"/>
</svg>
