<svg width="141" height="141" viewBox="0 0 141 141" fill="none" xmlns="http://www.w3.org/2000/svg">
<circle cx="70.5" cy="70.5" r="70.5" fill="white"/>
<path d="M57.5735 59.8896C57.5735 61.0007 56.6129 62.0007 55.2921 62.0007H45.2061C44.0054 62.0007 42.9248 61.1118 42.9248 59.8896V57.2229C42.9248 56.1118 44.0054 55.1118 45.2061 55.1118H55.2921C56.4929 55.1118 57.5735 56.0007 57.5735 57.2229V59.8896ZM98.5179 59.7785C98.5179 60.4452 97.9176 60.8896 97.3172 60.8896H91.914C91.1935 60.8896 90.7133 60.334 90.7133 59.7785V58.334C90.7133 57.6674 91.3136 57.2229 91.914 57.2229H97.3172C98.0376 57.2229 98.5179 57.7785 98.5179 58.334V59.7785ZM102 93.1119C102 96.0008 99.4785 98.3341 96.3566 98.3341H40.7635C37.6416 98.3341 35.1201 96.0008 35.1201 93.1119V91.5563H102V93.1119Z" fill="#212528"/>
<path d="M35 63.8887C35 60.9998 37.5215 58.6665 40.6434 58.6665H96.2365C99.3584 58.6665 101.88 60.9998 101.88 63.8887V65.4443H35V63.8887Z" fill="#51575B"/>
<path d="M35 65.2222H101.88V92.5555H35V65.2222Z" fill="#3E4347"/>
<path d="M92.1543 63.0008H58.6543L62.0163 46.0008C62.2564 45.0008 63.6973 43.5563 64.5378 43.223C69.7009 41.1119 81.2278 41.1119 86.2708 43.223C87.1113 43.5563 88.5521 45.1119 88.7923 46.0008L92.1543 63.0008Z" fill="#51575B"/>
<path d="M90.5935 72.9995H60.3354L63.3372 58.8884C63.5774 58.1106 64.8982 56.7772 65.6186 56.555C70.1813 54.7772 80.6275 54.7772 85.3103 56.555C86.0308 56.8883 87.3516 58.1106 87.5917 58.8884L90.5935 72.9995Z" fill="#3E4347"/>
<path d="M98.3975 80.7777C98.3975 92.5555 88.0714 102.111 75.3438 102.111C62.6162 102.111 52.29 92.5555 52.29 80.7777C52.29 68.9999 62.6162 59.4443 75.3438 59.4443C88.0714 59.5554 98.3975 69.111 98.3975 80.7777Z" fill="#788287"/>
<path d="M95.8766 80.7776C95.8766 91.2221 86.7511 99.6665 75.4644 99.6665C64.1777 99.6665 55.0522 91.2221 55.0522 80.7776C55.0522 70.3331 64.1777 61.8887 75.4644 61.8887C86.7511 61.8887 95.8766 70.3331 95.8766 80.7776Z" fill="#212528"/>
<path d="M75.4644 96.1111C84.6157 96.1111 92.0343 89.2461 92.0343 80.7777C92.0343 72.3093 84.6157 65.4443 75.4644 65.4443C66.3131 65.4443 58.8945 72.3093 58.8945 80.7777C58.8945 89.2461 66.3131 96.1111 75.4644 96.1111Z" fill="#3E4347"/>
<path d="M75.4648 89.111C80.4384 89.111 84.4702 85.3801 84.4702 80.7777C84.4702 76.1753 80.4384 72.4443 75.4648 72.4443C70.4913 72.4443 66.4595 76.1753 66.4595 80.7777C66.4595 85.3801 70.4913 89.111 75.4648 89.111Z" fill="#212528"/>
<path opacity="0.5" d="M87.5913 74.2221C87.5913 76.8888 85.3099 78.9999 82.4282 78.9999C79.5465 78.9999 77.2651 76.8888 77.2651 74.2221C77.2651 71.5555 79.5465 69.4443 82.4282 69.4443C85.3099 69.4443 87.5913 71.6666 87.5913 74.2221Z" fill="#F5F5F5"/>
<path opacity="0.5" d="M72.2224 86.7783C74.0129 86.7783 75.4643 85.4352 75.4643 83.7783C75.4643 82.1215 74.0129 80.7783 72.2224 80.7783C70.4319 80.7783 68.9805 82.1215 68.9805 83.7783C68.9805 85.4352 70.4319 86.7783 72.2224 86.7783Z" fill="#F5F5F5"/>
<path opacity="0.5" d="M66.4587 90.8895C67.5198 90.8895 68.3799 90.0936 68.3799 89.1118C68.3799 88.1299 67.5198 87.334 66.4587 87.334C65.3977 87.334 64.5376 88.1299 64.5376 89.1118C64.5376 90.0936 65.3977 90.8895 66.4587 90.8895Z" fill="#F5F5F5"/>
<path d="M50.7294 88.2224C50.7294 89.3335 49.7689 90.3335 48.4481 90.3335H38.7223C37.5216 90.3335 36.4409 89.4446 36.4409 88.2224V69.4446C36.4409 68.3335 37.4015 67.3335 38.7223 67.3335H48.4481C49.6488 67.3335 50.7294 68.2224 50.7294 69.4446V88.2224Z" fill="#636C72"/>
<path d="M45.5661 65.4444C47.4229 65.4444 48.9281 64.0515 48.9281 62.3333C48.9281 60.6151 47.4229 59.2222 45.5661 59.2222C43.7093 59.2222 42.2041 60.6151 42.2041 62.3333C42.2041 64.0515 43.7093 65.4444 45.5661 65.4444Z" fill="#212528"/>
<path d="M85.3099 50.3332C85.3099 51.4443 84.3493 52.2221 83.2686 52.2221H67.5393C66.3385 52.2221 65.498 51.3332 65.498 50.3332V48.3332C65.498 47.2221 66.4586 46.4443 67.5393 46.4443H83.2686C84.4694 46.4443 85.3099 47.3332 85.3099 48.3332V50.3332Z" fill="white"/>
<path d="M81.1073 47.8889L95.5159 39.1111L92.8743 35.8889L81.1073 47.8889ZM97.9173 52V48.2223L83.1485 50.7778L97.9173 52ZM84.2292 31H79.3062L76.6647 47.1111L84.2292 31ZM70.4209 47.8889L58.1736 35.8889L55.412 39.1111L70.4209 47.8889ZM70.7812 31H65.7381L74.0231 47.1111L70.7812 31ZM52.5303 48.2223V52L68.0195 50.7778L52.5303 48.2223Z" fill="#FFCE31"/>
</svg>
