<?xml version="1.0" standalone="no"?>
<!DOCTYPE svg PUBLIC "-//W3C//DTD SVG 20010904//EN"
 "http://www.w3.org/TR/2001/REC-SVG-20010904/DTD/svg10.dtd">
<svg version="1.0" xmlns="http://www.w3.org/2000/svg"
 width="768.000000pt" height="768.000000pt" viewBox="0 0 768.000000 768.000000"
 preserveAspectRatio="xMidYMid meet">
<metadata>
Created by potrace 1.16, written by Peter Selinger 2001-2019
</metadata>
<g transform="translate(0.000000,768.000000) scale(0.136412,-0.136412)"
fill="#000000" stroke="none">
<path d="M2463 5623 c1639 -2 2466 -6 2462 -13 -3 -6 1 -10 10 -10 9 0 14 4
11 9 -3 4 6 6 20 3 16 -3 21 -7 14 -12 -13 -8 -13 -16 1 -42 14 -27 36 -11 35
25 l-1 32 303 3 302 2 0 -1190 c0 -1177 0 -1190 -20 -1210 -21 -21 -27 -50
-10 -50 6 0 10 5 10 10 0 6 5 10 11 10 8 0 10 -63 7 -212 -4 -191 -7 -213 -21
-212 -10 1 -17 -2 -17 -7 0 -5 9 -9 20 -9 20 0 20 -5 18 -462 -3 -404 -5 -463
-18 -463 -8 -1 -18 4 -22 10 -5 6 -8 6 -8 -2 0 -7 -5 -13 -11 -13 -5 0 -7 4
-4 10 3 5 -1 10 -10 10 -8 0 -19 9 -23 19 -4 11 -10 20 -14 20 -5 1 -27 1 -51
1 -37 0 -45 4 -60 29 -9 16 -17 42 -16 58 l1 28 8 -25 c7 -23 8 -22 9 10 2 47
11 81 21 75 8 -5 12 15 23 113 5 41 -5 48 -28 22 -10 -11 -24 -20 -32 -20 -9
0 -13 -14 -13 -45 0 -29 -4 -45 -12 -45 -10 0 -10 -2 0 -9 11 -7 11 -9 -2 -14
-9 -4 -15 -12 -14 -19 2 -7 -4 -12 -12 -13 -8 0 -17 -13 -21 -30 l-6 -30 -5
30 -5 30 -2 -27 c-1 -26 -4 -28 -47 -28 -43 0 -74 16 -74 38 0 6 -14 22 -31
36 -25 21 -30 32 -27 56 3 21 -1 35 -14 47 -21 18 -24 59 -5 66 6 2 9 8 4 12
-4 5 -18 2 -32 -5 -21 -11 -25 -21 -25 -57 0 -29 7 -50 20 -65 44 -50 49 -58
63 -98 18 -53 11 -90 -15 -90 -28 0 -57 39 -58 77 0 18 -6 36 -13 40 -8 4 -24
22 -36 39 -22 30 -23 37 -16 147 5 75 11 115 18 114 12 -2 14 5 16 54 0 17 5
28 11 24 6 -4 10 5 10 19 0 14 -4 26 -10 26 -5 0 -10 7 -10 16 0 8 -4 12 -10
9 -5 -3 -10 3 -10 14 0 12 5 21 10 21 6 0 10 14 10 31 0 26 3 30 23 27 12 -2
22 -7 23 -13 2 -29 18 -45 45 -45 22 0 29 -5 29 -19 0 -11 6 -21 12 -23 23 -8
19 -148 -4 -148 -15 0 -38 -27 -38 -44 0 -20 24 -21 44 -1 23 23 43 18 58 -15
9 -22 19 -30 33 -28 11 2 19 9 18 15 -2 7 4 10 12 7 10 -4 15 0 15 11 0 9 4
14 9 10 6 -3 13 10 17 30 7 41 -3 105 -16 105 -6 0 -10 16 -10 36 0 21 4 33
10 29 6 -3 10 4 10 17 0 18 -2 20 -10 8 -5 -8 -10 -11 -10 -6 0 5 -11 -3 -25
-18 -30 -32 -42 -33 -71 -1 -42 46 -45 103 -6 120 24 10 31 31 8 22 -8 -3 -22
3 -32 14 -18 20 -49 25 -59 9 -9 -14 -55 -12 -56 3 0 6 -2 20 -4 30 -2 9 0 17
5 17 4 0 15 11 24 25 15 23 15 25 -1 25 -10 0 -26 -14 -35 -30 -10 -18 -25
-30 -38 -30 -12 0 -18 -4 -15 -10 10 -17 -55 -11 -72 6 -9 8 -19 41 -22 72 -4
34 -9 52 -14 45 -5 -7 -24 -13 -43 -13 -19 0 -33 4 -30 9 3 5 -1 14 -9 21 -8
7 -15 22 -15 34 0 34 -17 53 -32 38 -14 -14 -58 -16 -58 -3 0 5 -9 11 -20 14
-12 3 -20 14 -20 26 0 12 -5 21 -10 21 -6 0 -10 15 -10 33 1 42 -10 90 -24 99
-6 4 -10 49 -10 116 0 89 4 113 17 127 10 9 14 21 11 26 -3 6 1 18 9 27 9 9
20 29 26 45 12 32 26 34 43 7 7 -11 19 -20 26 -20 7 0 10 -4 7 -10 -3 -6 4
-10 18 -10 23 0 24 2 17 39 -9 50 -30 71 -71 71 -26 0 -41 9 -71 43 -20 23
-38 45 -38 50 0 4 -7 7 -15 7 -13 0 -15 27 -17 173 0 94 -1 177 -1 184 0 6 -6
9 -13 6 -11 -4 -14 4 -13 33 2 31 3 33 6 11 2 -15 9 -25 14 -21 5 3 7 10 3 15
-3 6 3 13 15 16 20 5 30 23 12 23 -5 0 -11 9 -14 20 -3 12 -14 20 -26 20 -14
0 -21 6 -21 19 0 10 -12 31 -27 47 -15 16 -26 33 -25 37 1 4 -4 15 -13 23 -8
9 -15 22 -15 30 0 8 -18 32 -40 54 -22 22 -40 44 -40 49 0 5 -15 24 -32 42
-18 18 -32 36 -31 41 2 4 -4 8 -12 8 -9 0 -19 8 -22 18 -4 9 -19 30 -35 45
-15 16 -28 34 -28 42 0 7 -7 16 -16 19 -8 3 -12 10 -9 16 3 6 -1 13 -9 16 -9
3 -16 12 -16 20 0 8 -7 14 -15 14 -9 0 -15 9 -15 25 0 13 -8 29 -17 34 -14 8
-15 11 -3 11 12 0 11 3 -2 11 -10 5 -18 17 -18 24 0 8 -7 15 -15 15 -8 0 -14
3 -14 8 1 4 1 16 0 27 -1 15 -3 17 -10 6 -7 -10 -11 -5 -16 18 -4 17 -10 29
-15 26 -5 -3 -11 4 -15 15 -4 11 -11 18 -16 15 -5 -4 -9 -1 -9 6 0 6 -29 41
-65 77 -36 35 -65 68 -65 71 0 15 -63 70 -73 64 -6 -3 -7 -1 -3 6 4 6 0 14 -8
17 -9 3 -14 10 -11 14 3 5 -4 11 -15 15 -11 3 -20 11 -20 16 0 5 -8 13 -17 16
-9 4 -35 26 -58 50 -23 24 -47 43 -54 43 -7 0 -9 5 -6 10 3 6 -1 10 -10 10 -8
0 -18 7 -21 15 -4 8 -12 15 -19 15 -8 0 -20 6 -27 13 -7 6 -34 22 -60 35 -27
13 -48 27 -48 32 0 4 -11 11 -25 14 -14 4 -25 11 -25 16 0 6 -8 10 -18 10 -10
0 -35 9 -57 20 -22 11 -47 20 -57 20 -9 0 -19 4 -22 9 -3 5 -27 12 -53 16 -27
4 -53 11 -60 17 -6 5 -38 12 -70 16 -46 4 -53 7 -33 13 15 4 -12 7 -65 7 -59
0 -83 -2 -70 -8 24 -10 24 -10 -223 -13 -138 -2 -175 -6 -182 -17 -6 -10 -37
-15 -112 -18 -57 -2 -109 -9 -115 -14 -9 -7 -18 -7 -28 2 -12 10 -15 10 -15
-1 0 -11 -2 -11 -10 1 -8 12 -10 9 -10 -11 0 -22 -6 -28 -32 -33 -39 -8 -49 0
-17 13 23 9 23 10 3 10 -12 1 -24 -6 -28 -14 -3 -8 -15 -15 -27 -15 -12 0 -19
-3 -16 -7 4 -3 3 -11 -2 -17 -16 -21 -21 -65 -9 -73 8 -5 -15 -10 -55 -14 -38
-3 -72 -10 -75 -16 -4 -5 -29 -18 -55 -28 -31 -12 -53 -28 -62 -45 -15 -30
-40 -40 -98 -40 -23 0 -36 -4 -32 -10 4 -6 -5 -10 -20 -10 -15 0 -25 -5 -24
-12 4 -31 -2 -59 -11 -53 -6 3 -13 -1 -16 -10 -5 -12 -9 -13 -14 -5 -5 8 -10
2 -14 -14 -3 -14 -13 -26 -21 -26 -8 0 -15 -7 -15 -15 0 -8 -6 -15 -14 -15
-18 0 -72 -53 -91 -90 -8 -15 -21 -30 -30 -33 -8 -4 -15 -13 -15 -22 0 -8 -4
-15 -10 -15 -5 0 -10 -6 -10 -14 0 -8 -6 -21 -13 -28 -11 -11 -26 -41 -29 -58
-1 -3 -7 -10 -15 -15 -8 -6 -15 -20 -16 -32 0 -13 -7 -25 -14 -27 -7 -3 -13
-12 -13 -21 0 -8 -4 -14 -9 -12 -5 1 -20 -11 -35 -26 -14 -15 -31 -25 -37 -21
-8 4 -9 -1 -4 -17 7 -22 7 -23 -10 -9 -17 14 -17 13 -8 -5 8 -15 7 -23 -3 -32
-7 -7 -15 -9 -19 -4 -3 5 1 12 7 14 7 3 3 6 -10 6 -13 1 -20 -3 -17 -9 3 -5
-2 -10 -12 -11 -10 0 -13 -3 -5 -6 14 -5 17 -83 3 -83 -5 0 -13 -9 -16 -20 -4
-11 -11 -18 -16 -15 -5 4 -9 0 -9 -8 0 -8 -16 -31 -35 -50 -19 -19 -35 -40
-35 -46 0 -6 -4 -11 -10 -11 -5 0 -10 -5 -10 -11 0 -17 -50 -60 -61 -54 -5 4
-9 -1 -9 -10 0 -10 7 -15 18 -13 11 2 18 -4 20 -19 2 -16 -2 -23 -13 -23 -9 0
-14 4 -11 9 3 5 0 14 -8 20 -24 20 -66 -6 -66 -41 0 -15 -4 -28 -10 -28 -5 0
-9 -3 -9 -7 4 -24 -2 -53 -10 -48 -5 3 -13 0 -17 -6 -3 -6 0 -15 7 -20 10 -6
10 -9 2 -9 -7 0 -17 -15 -22 -32 -7 -26 -9 -28 -10 -10 -1 14 -5 21 -12 16 -6
-3 -9 -17 -6 -30 2 -13 -2 -32 -9 -41 -16 -21 -18 -37 -5 -28 5 3 12 1 16 -5
4 -6 11 -8 16 -5 5 4 12 -1 15 -9 7 -19 45 -21 62 -4 9 9 13 7 18 -5 11 -30
20 -18 16 19 -3 26 -1 35 7 30 6 -4 11 -3 11 3 0 5 -6 11 -12 14 -10 3 -10 7
-1 18 6 8 14 43 18 78 5 47 13 71 31 90 13 14 24 29 24 33 0 5 9 8 20 8 11 0
20 7 20 15 0 8 3 15 8 15 4 0 18 18 32 40 18 30 33 42 58 46 21 4 49 22 75 50
53 55 72 58 64 7 -4 -20 -11 -39 -17 -43 -6 -4 -13 -31 -15 -60 -3 -30 -9 -56
-13 -59 -5 -3 -12 -23 -16 -43 -4 -21 -12 -38 -17 -38 -12 0 -39 -25 -39 -36
0 -4 -7 -12 -16 -18 -8 -7 -18 -31 -21 -54 -3 -23 -9 -39 -14 -36 -5 3 -9 -7
-10 -23 0 -25 -1 -26 -9 -8 -9 19 -9 19 -16 -2 -3 -13 -12 -23 -19 -23 -7 0
-15 -18 -18 -42 -8 -57 12 -69 36 -23 11 23 22 32 32 28 13 -4 13 -8 3 -21
-15 -18 -13 -269 2 -287 5 -6 12 -49 16 -95 5 -56 10 -78 15 -65 6 17 8 16 8
-8 1 -15 8 -30 17 -34 13 -5 13 -7 2 -14 -8 -6 -9 -9 -1 -9 6 0 14 -13 18 -30
4 -17 10 -30 15 -30 4 0 11 -19 15 -42 4 -24 12 -46 17 -49 6 -4 12 -35 15
-69 4 -58 3 -62 -15 -58 -15 4 -18 1 -15 -13 3 -10 8 -17 12 -15 3 2 7 -9 8
-25 2 -33 -2 -35 -23 -14 -26 26 -38 12 -24 -25 1 -3 2 -9 1 -13 -1 -5 3 -6 8
-3 12 8 19 -12 13 -41 -2 -13 -11 -23 -18 -23 -8 0 -14 -7 -14 -15 0 -8 -7
-15 -15 -15 -8 0 -15 -8 -15 -18 0 -11 -8 -18 -22 -19 -12 -1 -26 -9 -30 -18
-5 -8 -16 -15 -24 -15 -8 0 -12 -4 -9 -10 3 -5 -3 -10 -14 -10 -11 0 -26 -7
-35 -15 -8 -8 -19 -15 -24 -15 -6 0 -12 -7 -16 -15 -3 -8 -12 -15 -19 -15 -20
0 -61 -37 -46 -42 7 -2 9 -12 4 -27 -6 -18 -9 -21 -16 -10 -7 11 -9 10 -9 -3
0 -10 -7 -18 -15 -18 -8 0 -14 -3 -13 -7 0 -5 -2 -16 -7 -26 -6 -15 -10 -16
-16 -5 -7 10 -9 9 -9 -4 0 -10 -12 -26 -27 -35 -37 -24 -73 -63 -73 -78 0 -7
-12 -16 -26 -19 -21 -6 -24 -9 -14 -21 14 -17 40 -20 40 -6 0 5 -6 12 -12 14
-8 3 -5 6 6 6 15 1 17 -4 13 -29 -4 -18 -2 -32 6 -36 7 -4 9 -4 5 1 -4 4 0 14
8 22 8 9 13 22 10 29 -3 8 1 14 8 14 18 0 18 -47 0 -54 -8 -3 -14 -12 -14 -21
0 -8 -4 -15 -10 -15 -5 0 -10 -7 -10 -15 0 -8 -6 -15 -13 -15 -8 0 -19 -11
-25 -25 -12 -25 -45 -34 -57 -15 -12 20 -25 10 -25 -19 0 -17 -5 -33 -10 -36
-6 -3 -10 -14 -9 -23 0 -11 3 -12 6 -4 2 6 11 12 19 12 8 0 14 5 14 10 0 13
27 13 35 0 3 -6 -1 -7 -9 -4 -12 5 -16 -1 -17 -20 -2 -45 -5 -51 -17 -49 -16
4 -16 -24 1 -30 7 -3 4 -6 -7 -6 -15 -1 -16 -4 -6 -16 9 -10 9 -15 1 -15 -6 0
-11 -11 -11 -25 0 -14 -4 -25 -10 -25 -5 0 -12 -16 -16 -35 -6 -35 -24 -44
-52 -26 -11 6 -10 11 3 25 13 13 14 20 5 31 -9 11 -8 19 4 37 20 28 21 49 1
42 -8 -3 -17 -26 -21 -50 -3 -24 -10 -46 -14 -49 -5 -3 -11 -28 -15 -55 -5
-39 -11 -50 -25 -50 -31 0 -49 11 -43 26 3 9 -1 14 -12 14 -11 0 -15 -5 -11
-15 4 -10 -1 -15 -14 -15 -12 0 -20 -7 -20 -17 0 -15 -2 -16 -10 -3 -9 13 -10
13 -11 0 0 -8 -2 -27 -3 -42 -1 -15 2 -24 7 -19 11 11 57 -10 57 -26 0 -7 7
-13 15 -13 9 0 15 -9 14 -22 -1 -17 -2 -19 -6 -6 -6 26 -20 22 -27 -7 -7 -27
-26 -34 -26 -10 0 8 5 15 10 15 6 0 10 5 10 10 0 6 -9 10 -21 10 -11 0 -27 7
-36 15 -18 18 -22 16 -28 -14 -3 -18 1 -21 26 -21 22 0 29 -5 29 -20 0 -11 -7
-20 -15 -20 -19 0 -19 -16 0 -24 8 -3 15 -1 15 5 0 6 5 7 11 3 6 -3 15 0 20 7
7 11 9 10 9 -3 0 -13 8 -18 28 -18 21 0 24 -2 12 -10 -13 -8 -13 -10 2 -10 14
0 16 -5 9 -22 -8 -22 -7 -23 40 -20 32 3 49 0 49 -8 0 -6 -4 -8 -10 -5 -5 3
-10 -1 -10 -10 0 -9 4 -14 9 -11 10 6 25 -24 16 -32 -3 -3 -5 0 -5 6 0 7 -4
12 -10 12 -5 0 -10 -6 -10 -14 0 -7 -9 -16 -20 -19 -11 -3 -20 -12 -20 -21 0
-9 -4 -16 -9 -16 -5 0 -11 -11 -13 -25 -3 -16 -1 -25 7 -25 15 0 25 22 25 56
0 31 18 31 26 0 6 -26 36 -40 52 -24 7 7 10 4 9 -7 -1 -10 6 -19 17 -21 52 -8
66 -15 66 -34 0 -13 5 -18 15 -14 8 4 15 1 15 -5 0 -6 -4 -11 -10 -11 -5 0
-10 -16 -10 -35 0 -25 4 -35 16 -35 11 0 14 -5 10 -16 -3 -9 -6 -18 -6 -20 0
-2 -7 -4 -15 -4 -8 0 -15 -5 -15 -11 0 -6 -6 -17 -14 -24 -12 -12 -15 -12 -19
-1 -4 9 -14 12 -26 9 -19 -5 -20 -6 -3 -29 23 -32 62 -32 62 0 0 18 7 25 28
29 17 4 31 1 38 -8 6 -8 14 -12 17 -8 4 3 7 -4 7 -16 0 -18 4 -22 20 -18 11 3
18 1 14 -4 -3 -5 -12 -9 -20 -9 -23 0 -16 -18 9 -23 l22 -4 -22 -2 c-13 0 -23
-5 -23 -10 0 -5 -8 -12 -17 -14 -17 -4 -17 -5 0 -6 26 -2 21 -18 -8 -25 -16
-4 -23 -11 -19 -18 6 -9 9 -9 12 0 2 6 19 14 38 18 19 3 34 10 34 15 0 5 5 9
10 9 6 0 10 -7 10 -15 0 -8 -6 -15 -13 -15 -9 0 -12 -11 -9 -35 2 -19 1 -43
-3 -52 -5 -10 -7 -21 -7 -25 1 -5 -3 -8 -8 -8 -6 0 -10 11 -10 25 0 14 5 25
10 25 6 0 10 5 10 10 0 6 -7 10 -15 10 -8 0 -15 -4 -15 -10 0 -5 -7 -7 -15 -4
-8 4 -15 1 -15 -4 0 -6 8 -12 18 -14 9 -2 -4 -5 -30 -5 -35 -1 -45 2 -42 12 3
8 19 17 35 20 16 4 29 10 29 15 0 12 -47 21 -75 14 -22 -5 -24 -10 -18 -47 3
-23 9 -43 14 -45 21 -8 8 -29 -16 -24 -18 3 -25 0 -25 -12 0 -9 5 -16 10 -16
23 0 8 -29 -19 -35 -26 -5 -28 -9 -22 -33 5 -19 14 -28 32 -29 13 -1 17 1 7 3
-24 8 -31 34 -9 34 10 0 21 7 25 15 7 19 26 20 26 1 0 -8 8 -13 18 -12 9 0 17
-5 16 -11 -1 -7 -2 -28 -3 -47 -1 -25 -7 -36 -21 -41 -28 -9 -25 -28 4 -23 18
4 23 0 22 -16 -1 -13 7 -22 24 -27 14 -4 18 -8 10 -9 -9 -1 -7 -5 8 -10 24
-10 30 -47 12 -81 -7 -13 -7 -19 0 -19 5 0 10 -11 10 -24 0 -24 -16 -36 -50
-36 -24 0 -37 -20 -20 -30 8 -5 9 -10 1 -14 -6 -4 -13 5 -17 21 -9 44 -12 50
-13 26 -1 -21 -9 -27 -28 -20 -5 1 -7 8 -5 15 2 7 -3 11 -10 10 -7 -2 -12 3
-11 9 4 18 -24 16 -30 -1 -4 -9 1 -16 10 -18 11 -2 16 -15 17 -41 1 -32 -2
-37 -16 -33 -14 3 -18 -2 -18 -20 0 -13 -4 -24 -10 -24 -5 0 -10 9 -10 19 0
14 -5 18 -18 14 -14 -3 -18 -11 -14 -28 3 -17 -2 -25 -17 -30 -24 -7 -27 -20
-7 -28 8 -3 20 1 26 9 19 21 30 17 30 -12 0 -25 20 -54 38 -54 6 0 12 -7 16
-15 4 -12 -4 -15 -37 -17 -42 -1 -42 -1 -6 -5 40 -4 52 -23 38 -58 -4 -11 -8
-15 -8 -9 -1 7 -17 15 -36 18 -26 5 -35 12 -35 26 0 15 -7 20 -26 20 -14 0
-23 -4 -19 -9 3 -5 -2 -16 -11 -25 -8 -9 -12 -20 -9 -26 3 -5 -1 -10 -9 -10
-9 0 -16 -4 -16 -10 0 -5 7 -7 15 -4 10 4 15 0 15 -11 0 -11 -5 -15 -14 -12
-10 4 -17 -4 -21 -24 -4 -16 -11 -29 -16 -29 -5 0 -9 -9 -9 -21 0 -11 -4 -18
-9 -14 -9 5 -31 -24 -31 -39 0 -11 49 -6 55 4 5 8 11 7 21 -1 10 -8 14 -8 14
0 0 6 7 11 15 11 8 0 15 -4 15 -10 0 -5 15 -9 33 -9 30 2 30 2 4 6 -15 2 -25
9 -21 14 3 5 10 6 16 3 7 -4 8 -2 4 5 -4 6 -5 25 -1 41 5 23 12 30 28 29 15
-1 17 -3 6 -6 -11 -3 -15 -11 -12 -24 4 -15 11 -19 27 -15 19 5 20 4 3 -8 -35
-27 -21 -43 43 -45 37 -1 60 2 60 8 0 6 -4 11 -10 11 -5 0 -10 8 -10 18 0 11
3 13 8 5 5 -8 11 -3 19 13 10 22 9 24 -11 24 -14 0 -23 6 -23 15 0 8 4 15 9
15 4 0 8 9 8 19 0 11 7 26 15 34 8 8 17 43 21 78 4 35 10 66 14 69 4 3 10 23
13 44 4 22 11 42 16 45 5 4 13 30 17 58 4 30 11 50 16 47 6 -4 8 8 5 30 -4 30
-2 36 13 36 13 0 19 12 25 52 5 29 7 56 7 60 -1 5 4 8 12 8 17 0 27 -45 13
-59 -6 -6 -7 -11 -2 -11 5 0 1 -6 -10 -13 -20 -16 -12 -39 10 -31 8 4 12 11 8
17 -3 6 -1 7 5 3 7 -4 12 -30 12 -59 0 -32 -4 -47 -9 -39 -7 11 -9 11 -14 -2
-4 -9 -13 -16 -22 -16 -8 0 -15 -9 -15 -20 0 -12 -6 -31 -13 -43 -17 -28 -16
-39 5 -60 24 -24 42 -22 28 2 -15 29 -12 61 6 61 8 0 12 -4 9 -10 -3 -6 5 -10
19 -10 14 0 27 4 30 9 3 5 21 9 39 9 30 0 34 -3 34 -29 0 -33 -16 -39 -24 -10
-4 16 -9 18 -33 10 -30 -11 -43 -49 -28 -88 6 -17 3 -21 -12 -21 -12 0 -21
-10 -25 -30 -4 -17 -11 -28 -16 -24 -5 3 -9 -4 -9 -15 0 -14 -6 -21 -20 -21
-11 0 -19 -3 -19 -8 4 -24 -3 -42 -16 -42 -10 0 -15 -10 -15 -31 0 -18 -4 -28
-10 -24 -18 11 -24 -27 -7 -40 18 -13 24 -41 8 -30 -5 3 -12 1 -16 -5 -4 -7
56 -10 179 -10 181 0 186 1 186 21 0 22 22 49 40 49 6 0 17 -6 24 -13 11 -10
10 -15 -1 -25 -22 -21 -15 -32 20 -31 17 0 26 3 19 6 -14 6 -16 33 -2 33 6 0
10 6 10 14 0 8 6 16 12 18 7 3 2 7 -10 10 -12 4 -22 2 -22 -3 0 -5 -7 -9 -15
-9 -8 0 -15 4 -15 9 0 5 -8 8 -17 7 -12 -1 -18 7 -19 21 -1 13 4 23 11 23 7 0
16 7 19 16 9 22 8 24 -10 24 -23 0 -11 24 14 28 25 4 30 22 7 22 -12 0 -14 8
-9 43 4 23 11 43 16 45 4 2 8 14 8 27 0 34 10 55 27 55 10 0 12 -8 7 -34 -6
-32 -4 -34 16 -29 21 6 22 4 16 -23 -4 -16 -11 -31 -15 -34 -17 -11 -23 -52
-10 -62 11 -7 11 -11 2 -15 -22 -8 -14 -53 12 -77 13 -13 22 -26 18 -30 -4 -4
0 -4 10 0 12 4 17 1 17 -11 0 -9 5 -13 10 -10 6 3 10 2 10 -4 0 -5 -4 -11 -9
-13 -4 -2 -12 -13 -15 -26 l-8 -23 186 2 c193 2 196 2 180 43 -4 11 -14 13
-33 10 -19 -4 -30 -1 -34 9 -3 9 -14 13 -31 10 -14 -3 -24 -8 -22 -12 3 -4 -4
-12 -15 -19 -28 -18 -24 4 6 34 19 19 34 25 60 23 19 -2 37 0 41 4 13 13 24 7
24 -12 0 -11 9 -21 22 -24 27 -7 38 -1 38 22 0 10 7 18 15 18 8 0 15 -9 15
-19 0 -10 -4 -18 -10 -18 -5 0 -10 -5 -10 -11 0 -7 -8 -18 -17 -25 -16 -12
-16 -15 -3 -24 10 -6 470 -10 1368 -10 1320 1 1352 1 1352 20 0 10 -7 25 -15
34 -20 20 -19 26 6 21 29 -6 32 -10 31 -45 0 -21 4 -30 15 -30 11 0 14 8 11
35 -2 19 -2 32 0 30 3 -2 13 0 23 6 17 9 19 6 19 -26 0 -22 4 -34 10 -30 5 3
10 2 10 -2 0 -5 56 -10 125 -11 81 -2 125 1 125 8 0 5 7 10 15 10 8 0 15 -4
15 -10 0 -5 21 -10 46 -10 l46 0 -7 38 c-3 20 -11 41 -16 47 -12 12 -12 55 1
55 6 0 10 14 10 31 0 28 2 30 32 27 25 -2 33 1 37 17 3 11 15 22 26 23 11 2
28 12 38 23 29 31 48 22 66 -33 9 -27 18 -38 33 -38 18 0 19 4 13 42 -4 23
-14 48 -21 56 -8 7 -14 20 -14 28 0 8 -4 12 -10 9 -6 -4 -10 8 -10 29 0 35 1
36 39 36 31 0 41 -4 46 -20 3 -11 10 -20 15 -20 4 0 11 -29 15 -65 3 -36 10
-63 14 -60 10 6 23 -79 15 -100 -7 -18 -44 -20 -44 -2 -1 21 -20 -20 -22 -47
-2 -20 -7 -25 -24 -22 -20 4 -33 -14 -34 -46 0 -5 48 -8 107 -8 83 0 104 3 95
12 -7 7 -12 22 -12 35 0 29 23 30 57 3 14 -11 20 -20 14 -20 -8 0 -8 -5 3 -15
8 -9 33 -15 59 -15 36 0 46 4 50 20 6 23 57 29 57 6 0 -21 23 -26 111 -26 l79
0 0 2815 0 2815 -2817 -2 -2818 -3 2468 -2z m779 -500 c21 -9 38 -23 38 -31 0
-7 4 -11 9 -7 5 3 12 -4 16 -15 3 -11 11 -20 16 -20 12 0 12 -27 -1 -32 -6 -2
-1 -9 11 -16 12 -8 18 -9 15 -3 -4 7 -1 8 8 5 9 -3 16 -12 16 -20 0 -8 4 -14
10 -14 5 0 12 -23 16 -52 6 -46 8 -49 21 -33 10 15 16 16 25 7 9 -9 8 -12 -5
-12 -14 0 -16 -6 -11 -27 4 -16 10 -30 14 -33 4 -3 10 -15 14 -27 4 -13 12
-23 17 -23 5 0 9 -7 9 -15 0 -8 -6 -15 -12 -15 -10 0 -10 -2 -1 -8 7 -4 16
-22 19 -40 6 -28 4 -32 -15 -33 -11 -1 -27 -2 -33 -3 -7 -1 -12 7 -10 18 3 17
2 18 -12 3 -19 -18 -21 -47 -4 -47 8 0 7 -6 -4 -16 -12 -12 -26 -14 -57 -9
-23 4 -39 11 -35 16 3 5 1 9 -5 9 -15 0 -71 60 -71 76 0 9 -4 12 -10 9 -6 -4
-10 6 -10 23 0 16 -9 39 -20 52 -23 26 -22 23 -14 44 3 9 12 16 20 16 9 0 13
8 11 23 -2 12 -2 16 0 10 3 -7 9 -13 14 -13 5 0 9 -7 9 -15 0 -8 7 -15 16 -15
14 0 14 -2 3 -16 -8 -10 -15 -12 -17 -5 -2 6 -9 8 -14 5 -7 -4 -8 -2 -4 4 10
17 -3 15 -20 -3 -14 -13 -14 -15 0 -15 9 0 16 -6 16 -13 0 -8 7 -14 15 -14 8
0 15 4 15 9 0 5 9 7 20 3 15 -5 21 -1 25 18 4 13 5 29 3 36 -6 25 17 21 49 -8
18 -16 34 -26 37 -23 3 3 6 -2 6 -11 0 -9 4 -18 8 -21 5 -3 6 8 4 25 -2 16
-10 29 -17 29 -7 0 -16 12 -19 26 -4 15 -25 44 -47 66 -21 21 -39 43 -39 48 0
5 -9 12 -20 15 -13 4 -20 15 -20 31 0 13 -4 24 -10 24 -5 0 -10 -5 -10 -10 0
-6 -10 -1 -22 11 -21 19 -22 22 -6 32 15 10 15 12 1 22 -9 7 -13 17 -9 23 9
15 12 15 58 -5z m-533 -292 c13 -11 29 -17 37 -14 8 3 14 0 14 -5 0 -6 7 -18
16 -26 9 -9 11 -16 4 -16 -6 0 -8 -5 -5 -10 4 -6 10 -8 15 -5 5 3 12 0 16 -7
4 -7 4 -10 -1 -6 -4 4 -14 0 -23 -8 -12 -13 -13 -19 -2 -40 7 -13 15 -22 17
-20 3 2 0 13 -6 25 -7 13 -8 22 -1 26 5 3 10 0 11 -7 0 -10 2 -10 6 0 7 17 23
15 23 -3 0 -8 -4 -15 -10 -15 -5 0 -10 -7 -10 -15 0 -8 -9 -20 -20 -27 -11 -7
-20 -18 -20 -23 0 -6 -9 -11 -20 -11 -11 0 -20 4 -20 9 0 5 -7 6 -16 3 -14 -5
-15 -4 -4 9 15 18 -1 20 -19 3 -10 -11 -11 -9 -5 6 6 15 3 17 -17 12 -13 -3
-18 -3 -11 0 19 9 14 21 -13 28 -14 4 -25 13 -25 21 0 8 -5 15 -10 15 -13 0
-90 79 -90 92 0 5 -4 6 -10 3 -5 -3 -10 -1 -10 4 0 14 13 14 27 0 6 -6 32 -12
58 -14 26 -2 50 -7 54 -11 3 -5 14 -15 23 -22 14 -12 16 -11 11 8 -7 27 21 17
34 -12 6 -15 12 -18 17 -10 4 7 2 12 -3 12 -6 0 -11 6 -11 14 0 8 -7 16 -15
20 -8 3 -15 12 -15 21 0 19 2 19 29 -4z m-1025 -96 c3 -9 18 -15 36 -15 18 0
33 -6 36 -15 4 -8 10 -15 15 -15 4 0 20 -11 34 -25 16 -14 45 -27 71 -31 28
-4 44 -11 44 -20 0 -8 7 -14 15 -14 9 0 21 -5 28 -10 7 -6 24 -19 39 -31 15
-11 27 -25 25 -32 -1 -6 9 -13 23 -15 21 -2 22 -1 10 9 -12 9 -11 10 5 4 11
-4 28 -10 37 -12 10 -3 15 -9 12 -14 -3 -5 3 -9 12 -9 23 0 54 -29 48 -45 -3
-7 -1 -16 5 -20 6 -3 11 1 11 9 0 18 16 21 25 6 3 -5 19 -10 36 -10 19 0 29
-5 29 -15 0 -8 5 -15 11 -15 5 0 8 -4 4 -9 -3 -5 1 -16 9 -23 9 -10 11 -20 5
-31 -6 -10 -5 -18 1 -22 5 -3 10 0 10 8 0 23 46 -2 60 -31 5 -13 15 -20 21
-16 6 3 17 -3 25 -15 8 -12 22 -21 30 -21 8 0 14 -7 14 -15 0 -8 8 -16 18 -16
9 -1 4 -5 -13 -9 l-30 -8 35 -3 c19 -1 43 -3 53 -2 10 0 17 -8 17 -19 0 -12 7
-18 21 -18 15 0 19 -5 15 -15 -4 -11 1 -15 17 -15 18 0 19 -2 7 -10 -13 -8
-12 -10 3 -10 9 0 17 -7 17 -15 0 -8 5 -15 12 -15 6 0 19 -7 29 -16 9 -8 39
-17 65 -19 27 -2 50 -9 52 -14 2 -6 10 -11 19 -11 8 0 27 -9 41 -21 16 -12 38
-19 57 -18 16 1 39 1 50 0 l20 -2 -20 -9 c-20 -9 -20 -9 1 -9 25 -1 44 -19 44
-43 0 -12 5 -15 17 -11 11 4 14 3 9 -5 -7 -12 5 -16 32 -13 7 1 11 -2 10 -6
-1 -4 3 -18 10 -31 7 -12 10 -26 7 -31 -6 -11 42 -51 62 -51 8 0 12 -4 8 -9
-3 -5 -1 -12 4 -15 5 -3 7 -16 3 -28 -4 -17 -2 -20 15 -16 17 5 20 1 17 -23
-2 -16 0 -29 4 -29 12 0 72 -58 72 -69 0 -15 17 -14 23 2 3 6 6 2 6 -10 1 -13
-5 -23 -11 -23 -9 0 -9 -3 1 -9 8 -5 14 -22 15 -39 1 -19 5 -28 14 -25 9 4 12
-7 11 -41 -1 -25 -6 -46 -11 -46 -12 0 -10 -55 4 -86 10 -21 10 -28 1 -31 -7
-3 -18 -31 -24 -64 -6 -32 -16 -59 -20 -59 -5 0 -9 -9 -9 -20 0 -11 -3 -20 -7
-20 -20 -1 -58 -45 -59 -68 -1 -15 -3 -28 -4 -29 -4 -5 -7 -22 -9 -43 -1 -14
-8 -20 -25 -20 -17 0 -26 -7 -30 -24 -3 -14 -18 -29 -36 -36 -24 -10 -28 -15
-19 -26 9 -11 8 -14 -2 -14 -12 0 -12 -2 0 -9 9 -6 10 -11 2 -15 -6 -4 -14 -1
-17 8 -8 22 -61 18 -67 -5 -4 -14 0 -19 14 -19 24 0 24 -5 -2 -31 -16 -16 -23
-18 -34 -9 -11 9 -18 9 -29 -3 -8 -8 -12 -17 -9 -21 3 -3 1 -12 -5 -19 -7 -8
-9 -17 -5 -20 3 -4 2 -7 -4 -7 -6 0 -14 8 -18 18 -6 15 -8 14 -16 -6 -5 -13
-13 -21 -18 -18 -5 3 -22 -1 -37 -9 -16 -8 -37 -15 -47 -15 -11 0 -17 -6 -15
-16 4 -21 -29 -44 -40 -27 -4 6 -30 13 -57 16 -28 2 -58 8 -68 12 -26 11 -30
1 -14 -37 25 -55 29 -98 11 -105 -9 -3 -30 -19 -46 -35 -16 -15 -40 -28 -53
-28 -13 0 -27 -4 -30 -10 -8 -13 -98 -13 -112 1 -6 6 -81 13 -181 16 -94 3
-169 10 -166 15 3 4 -40 8 -95 8 -102 0 -135 5 -125 21 3 5 -2 9 -10 9 -9 0
-16 7 -16 15 0 23 -16 18 -17 -5 -1 -12 5 -20 15 -21 16 -1 16 -2 0 -6 -19 -5
-20 -43 -2 -43 7 0 14 -4 16 -9 2 -8 25 -15 70 -20 3 -1 9 -28 13 -61 4 -33
11 -58 15 -55 4 3 11 -7 14 -20 4 -14 11 -23 16 -20 6 3 10 -1 10 -9 0 -9 7
-16 15 -16 8 0 15 -4 15 -10 0 -5 7 -10 15 -10 8 0 15 -5 15 -11 0 -5 4 -8 10
-4 5 3 17 -6 26 -20 14 -22 24 -25 70 -25 50 0 80 -13 52 -23 -7 -2 -4 -3 7
-1 11 2 30 4 43 4 13 0 20 4 17 10 -4 6 5 9 22 8 15 -2 29 1 30 6 1 5 15 15
32 22 17 7 31 18 31 24 0 5 5 10 11 10 5 0 8 -4 5 -9 -3 -4 6 -6 19 -3 14 2
23 8 20 12 -3 5 4 11 15 15 11 3 20 12 20 20 0 7 14 16 30 20 17 4 30 11 30
16 0 5 7 9 15 9 8 0 15 6 15 14 0 8 11 17 25 20 14 4 25 13 25 21 0 8 6 15 14
15 8 0 16 7 20 15 3 8 14 15 24 15 11 0 25 7 32 15 7 8 21 15 31 15 11 0 19 5
19 10 0 6 17 10 38 10 21 0 43 5 50 12 9 9 12 9 12 0 0 -7 11 -12 24 -12 14 0
28 -5 31 -10 5 -8 11 -8 19 -1 17 15 26 4 26 -32 0 -29 1 -30 19 -13 11 10 24
15 30 12 5 -3 11 0 14 6 2 7 8 10 12 5 5 -4 -2 -18 -14 -31 -19 -21 -20 -24
-6 -30 9 -3 25 -6 36 -6 24 0 35 -25 19 -45 -6 -8 -9 -19 -5 -25 4 -6 -5 -10
-22 -11 l-28 0 25 -11 25 -11 -25 -7 c-16 -5 -19 -8 -7 -9 9 -1 17 -5 17 -11
0 -5 -8 -10 -17 -11 -16 0 -15 -2 2 -10 17 -8 16 -8 -7 -4 -21 4 -28 0 -33
-15 -3 -11 -13 -20 -21 -20 -13 0 -18 -12 -15 -32 0 -5 -6 -8 -14 -8 -8 0 -15
-9 -15 -20 0 -11 -4 -20 -9 -20 -14 0 -61 -45 -61 -57 0 -6 -10 -13 -22 -17
-19 -5 -21 -8 -8 -16 13 -9 13 -10 0 -10 -9 0 -23 -8 -32 -17 -28 -30 -46 -43
-60 -43 -7 0 -24 -13 -38 -30 -14 -16 -30 -30 -37 -30 -7 0 -16 -7 -21 -16 -5
-10 -24 -18 -43 -19 -19 -1 -33 -6 -32 -12 1 -6 -4 -14 -12 -17 -9 -3 -15 1
-15 10 0 10 -8 6 -24 -13 -24 -28 -25 -28 -138 -26 -62 1 -129 2 -148 4 -19 1
-56 1 -82 -1 -43 -2 -50 1 -87 39 -23 23 -41 46 -41 52 0 6 -4 8 -9 5 -5 -4
-12 7 -16 24 -4 16 -10 30 -15 30 -5 0 -11 14 -15 30 -4 17 -10 30 -15 30 -5
0 -11 14 -15 30 -4 17 -10 30 -15 30 -5 0 -11 14 -15 30 -4 17 -11 28 -16 24
-5 -3 -12 9 -16 26 -3 19 -9 27 -13 20 -5 -7 -10 -1 -14 16 -4 16 -12 32 -18
35 -6 4 -10 19 -10 33 0 18 -5 26 -13 22 -8 -3 -15 8 -20 30 -3 19 -10 32 -16
29 -5 -4 -10 4 -11 17 0 13 -2 29 -2 36 -1 7 -6 16 -13 20 -6 4 -14 24 -18 45
-4 20 -11 37 -16 37 -5 0 -12 18 -15 40 -4 22 -10 38 -14 35 -4 -3 -10 13 -14
35 -3 22 -11 40 -16 40 -5 0 -12 11 -16 25 -3 14 -10 25 -15 25 -5 0 -9 7 -9
15 0 8 -9 32 -20 52 -11 21 -20 43 -20 50 0 6 -4 13 -10 15 -5 2 -13 44 -16
95 -4 51 -10 90 -14 88 -12 -7 -21 266 -14 415 7 138 7 140 31 140 21 0 29
-14 24 -42 -2 -15 37 -8 43 7 3 8 16 15 28 14 13 0 17 -3 11 -6 -24 -9 -13
-20 15 -16 21 4 24 2 12 -6 -13 -9 -13 -11 1 -11 9 0 19 -7 23 -15 3 -8 17
-15 31 -15 15 0 24 -4 20 -10 -4 -6 -10 -8 -14 -6 -4 3 -8 -4 -8 -15 -2 -21
-2 -21 42 -26 66 -7 117 -3 127 12 4 6 8 0 8 -12 0 -27 19 -31 21 -5 1 9 1 20
0 25 0 4 5 7 13 7 24 0 29 20 10 35 -17 12 -16 14 16 23 19 5 34 13 33 19 -1
5 2 25 6 45 7 32 5 40 -19 67 -15 16 -26 32 -23 35 3 3 -4 18 -16 34 -12 17
-21 40 -21 51 0 12 -4 21 -10 21 -5 0 -10 11 -10 24 0 14 -13 39 -28 56 -26
28 -30 29 -42 15 -12 -15 -15 -14 -25 6 -11 19 -22 23 -81 25 -38 2 -87 9
-108 16 -31 10 -40 10 -44 0 -2 -7 -10 -12 -18 -12 -9 0 -12 5 -9 10 12 19
-21 10 -35 -10 -8 -11 -21 -20 -30 -19 -10 0 -11 2 -2 6 18 7 15 21 -5 19 -10
0 -19 7 -21 18 -2 10 0 16 6 12 6 -4 11 63 13 186 3 141 7 192 17 196 14 4 16
32 2 32 -7 0 -7 6 -1 18 6 9 13 34 16 55 3 20 11 37 18 37 7 0 6 4 -3 10 -8 5
-10 10 -4 10 7 0 15 16 18 35 4 19 11 35 15 35 5 0 12 16 15 35 4 19 11 35 15
35 5 0 12 12 15 26 8 29 28 54 45 54 9 0 27 38 23 52 -2 10 36 20 48 13 5 -3
10 1 10 9 0 20 16 21 24 1z m-214 -924 c0 -5 13 -12 29 -16 16 -3 32 -13 35
-21 3 -8 12 -14 21 -14 8 0 15 -7 15 -16 0 -10 6 -14 15 -10 19 7 19 1 -1 -19
-19 -19 -14 -28 10 -19 9 3 13 10 10 15 -3 5 0 9 5 9 6 0 11 -6 11 -13 0 -8
-24 -22 -54 -32 -37 -13 -58 -26 -65 -42 -9 -18 -17 -23 -34 -19 -12 3 -17 3
-10 0 7 -3 9 -12 6 -21 -4 -10 -2 -14 4 -10 7 4 10 0 9 -10 -2 -9 -9 -19 -16
-21 -7 -3 -10 0 -6 6 3 6 2 13 -4 17 -5 3 -10 15 -10 26 0 10 -4 19 -10 19 -5
0 -12 27 -16 60 -4 33 -11 60 -15 60 -15 0 -10 52 7 64 19 15 64 19 64 7z
m3142 -975 c7 4 8 2 4 -4 -7 -11 11 -51 29 -64 6 -5 5 -8 -2 -8 -7 0 -13 -8
-13 -17 0 -15 2 -16 10 -3 8 12 10 9 10 -12 0 -16 9 -37 20 -48 11 -11 20 -33
20 -50 0 -27 -3 -30 -30 -30 -16 0 -30 5 -30 10 0 6 -9 10 -19 10 -11 0 -27 3
-37 7 -16 6 -16 7 2 14 17 7 17 8 2 8 -24 1 -23 21 0 21 19 0 42 18 42 32 0 4
-21 8 -46 8 l-47 0 7 53 c3 28 6 59 6 69 0 11 6 15 20 11 13 -3 20 0 20 8 1 9
4 8 11 -4 6 -9 15 -14 21 -11z m-125 -886 c3 -8 5 -21 4 -27 -1 -9 11 -13 34
-13 26 0 35 4 36 18 1 9 2 22 4 27 1 6 3 18 3 28 2 13 9 17 25 15 17 -2 23
-11 25 -37 2 -20 0 -31 -7 -27 -18 12 -23 -15 -6 -34 17 -19 26 -92 13 -106
-4 -3 -21 9 -37 27 l-31 33 -29 -33 -30 -33 -7 28 c-4 16 -8 41 -8 55 -1 14
-6 32 -13 40 -13 16 -12 29 2 69 8 22 9 23 13 5 2 -11 6 -27 9 -35z m368 -59
c-3 -5 4 -12 15 -16 11 -3 20 -11 20 -16 0 -5 14 -9 30 -9 17 0 30 -4 30 -10
0 -5 -7 -7 -15 -3 -12 4 -15 0 -11 -19 2 -13 -2 -35 -10 -48 -7 -14 -13 -19
-14 -12 0 6 -5 12 -11 12 -6 0 -9 -7 -5 -15 7 -20 -27 -37 -67 -33 -27 2 -33
8 -35 31 -3 24 0 27 30 28 18 1 38 1 44 0 7 -1 14 5 18 14 3 10 -1 15 -13 15
-10 0 -30 9 -44 20 -23 18 -25 24 -15 45 7 17 19 25 35 25 13 0 22 -4 18 -9z
m-319 -137 c5 -19 9 -22 15 -12 6 9 9 7 9 -10 0 -13 -4 -20 -10 -17 -5 3 -9
-2 -8 -12 3 -44 -3 -74 -21 -90 -11 -10 -21 -29 -23 -42 -3 -27 -28 -42 -28
-18 0 8 -7 17 -15 20 -19 8 -9 138 12 150 7 5 11 12 8 17 -3 5 6 12 21 16 19
5 22 9 12 15 -10 7 -9 9 4 9 11 0 20 -10 24 -26z m64 -54 c11 -11 20 -31 20
-45 0 -14 5 -25 10 -25 6 0 21 -11 34 -25 26 -28 46 -32 46 -11 0 23 45 66 68
66 11 0 23 -7 26 -16 9 -23 -5 -145 -15 -138 -5 3 -9 -1 -10 -8 0 -10 -2 -10
-6 0 -2 6 -10 12 -17 12 -7 0 -23 9 -36 20 -13 11 -26 17 -29 14 -3 -4 -1 -9
6 -11 17 -6 -23 -43 -47 -43 -11 0 -20 5 -20 10 0 6 -6 10 -13 10 -21 0 -47
38 -47 68 0 16 8 34 20 42 11 8 20 21 20 30 -1 12 -2 12 -11 -2 -5 -10 -16
-15 -24 -12 -21 9 -20 84 2 84 2 0 12 -9 23 -20z m560 -199 c3 -4 13 -10 23
-14 9 -3 17 -13 17 -22 0 -8 5 -15 10 -15 6 0 10 -12 10 -26 0 -14 -4 -23 -10
-19 -5 3 -10 2 -10 -3 0 -5 -10 -7 -23 -5 -13 3 -32 -4 -46 -16 -13 -12 -28
-21 -33 -21 -5 0 -6 -4 -3 -10 11 -19 -35 -10 -55 10 -21 21 -27 35 -10 25 6
-4 10 7 10 27 0 48 10 78 26 78 8 0 14 5 14 11 0 5 5 7 10 4 6 -3 10 -2 10 4
0 11 52 4 60 -8z m-497 -115 c3 -8 3 -24 0 -35 -5 -20 9 -27 40 -22 5 1 6 -3
2 -9 -3 -5 -1 -10 4 -10 6 0 11 -9 11 -21 0 -11 4 -18 9 -14 5 3 12 1 16 -5 4
-6 11 -8 16 -5 5 4 9 -8 9 -24 0 -19 -5 -31 -13 -31 -7 0 -29 -13 -47 -30 -33
-30 -90 -42 -90 -19 0 16 -26 39 -44 39 -9 0 -16 5 -16 11 0 5 -4 7 -10 4 -5
-3 -10 3 -10 15 0 12 5 18 10 15 11 -7 13 1 14 55 1 23 5 34 14 32 7 -1 15 11
18 27 8 37 56 56 67 27z m611 -310 c10 -25 25 -47 32 -50 8 -3 14 -19 13 -38
-1 -34 -16 -93 -18 -70 -1 8 -11 3 -25 -12 -26 -29 -71 -34 -80 -10 -3 9 -6
33 -6 55 0 28 -4 39 -15 39 -12 0 -15 -15 -15 -73 l0 -73 -33 -2 c-42 -3 -87
33 -87 68 0 33 36 99 65 122 13 10 27 27 30 38 4 11 13 20 21 20 8 0 12 5 9
10 -3 6 1 10 10 10 9 0 13 -4 10 -10 -4 -6 5 -10 20 -10 20 0 26 4 21 15 -3
10 1 15 12 15 12 0 24 -16 36 -44z m-2674 -286 c0 -10 -4 -22 -10 -25 -11 -7
-9 -200 3 -211 4 -4 13 -2 19 4 18 18 25 15 32 -11 8 -32 -10 -90 -34 -112
-14 -12 -20 -31 -20 -57 0 -31 -4 -41 -20 -45 -11 -3 -20 -11 -20 -19 0 -8 -6
-11 -15 -8 -9 4 -15 0 -15 -10 0 -16 -11 -21 -23 -10 -9 9 16 44 31 44 9 0 10
5 2 19 -5 11 -10 28 -10 39 0 15 -6 19 -26 16 -21 -2 -25 1 -21 17 3 11 -1 25
-8 32 -21 21 -27 54 -11 60 10 4 12 0 9 -14 -4 -15 -2 -18 11 -13 21 8 20 26
-3 51 -24 25 -23 64 1 71 10 2 18 9 19 16 3 27 -4 61 -13 67 -15 10 -5 55 12
51 11 -3 10 1 -3 16 -16 18 -16 19 10 32 16 8 39 15 52 16 13 2 26 5 29 8 9
10 22 -5 22 -24z m2170 -50 c0 -5 6 -10 14 -10 20 0 26 -23 25 -88 0 -31 -3
-51 -6 -43 -5 11 -7 11 -14 0 -7 -11 -9 -10 -9 4 0 15 -2 16 -14 5 -8 -7 -12
-16 -10 -19 2 -4 -22 -9 -54 -13 -47 -6 -59 -4 -69 11 -7 9 -13 11 -13 5 0
-13 -66 -17 -73 -4 -2 4 4 15 15 25 12 11 18 13 18 5 1 -8 6 -6 14 5 8 10 18
19 23 20 4 1 7 5 6 9 -2 4 6 10 17 13 11 4 20 11 20 16 0 5 6 9 14 9 8 0 24
13 37 30 23 29 59 41 59 20z m-157 -348 c-3 -12 -11 -22 -18 -22 -7 0 -18 -7
-25 -15 -10 -12 -10 -15 4 -15 22 0 21 -27 -1 -33 -10 -3 -1 -5 20 -6 26 -1
37 -5 37 -17 0 -8 5 -12 10 -9 6 3 10 2 10 -4 0 -5 -4 -13 -10 -16 -5 -3 -10
-11 -10 -17 0 -6 8 -4 18 5 10 10 22 14 25 10 4 -3 7 -1 7 5 0 5 -4 12 -10 14
-5 2 -12 22 -16 46 -5 34 -4 42 9 42 11 0 17 -15 22 -55 4 -30 12 -55 17 -55
5 0 8 -26 5 -60 -2 -33 0 -60 5 -60 4 0 8 -20 8 -45 0 -38 -3 -45 -20 -45 -13
0 -20 7 -20 20 0 11 -4 20 -10 20 -5 0 -10 10 -11 23 0 12 -3 16 -6 10 -6 -17
-33 -16 -33 1 0 7 -11 22 -25 32 -27 20 -32 40 -13 46 19 7 -3 30 -23 25 -16
-4 -19 0 -19 29 0 24 -5 34 -15 34 -8 0 -15 5 -15 10 0 6 5 10 10 10 6 0 10 9
10 20 0 11 5 20 11 20 5 0 2 13 -7 30 -18 29 -11 58 6 30 6 -8 10 -11 10 -7 0
4 9 3 20 -3 15 -8 21 -6 30 11 14 26 21 21 13 -9z m346 9 c16 -16 17 -21 4
-45 -9 -17 -22 -26 -38 -26 -14 0 -25 -4 -25 -10 0 -5 -11 -10 -24 -10 -13 0
-32 -3 -41 -6 -13 -5 -14 -8 -3 -15 10 -7 10 -9 1 -9 -37 0 -72 83 -51 123 13
26 150 25 177 -2z m365 -124 c12 -13 34 -27 49 -31 20 -5 27 -13 27 -30 0 -14
7 -31 15 -40 8 -8 15 -22 15 -30 0 -24 -108 -23 -118 2 -4 9 -13 18 -20 20
-10 2 -11 -7 -7 -31 6 -29 4 -35 -15 -40 -35 -9 -70 32 -70 82 0 22 5 41 11
41 5 0 7 5 4 10 -4 6 7 10 25 10 18 0 29 -4 25 -10 -3 -5 -1 -10 4 -10 6 0 11
7 11 15 0 8 -4 15 -10 15 -14 0 -13 18 3 35 17 20 27 18 51 -8z"/>
<path d="M2618 3869 c-2 -6 -36 -14 -76 -17 -40 -2 -72 -8 -72 -12 0 -4 -38
-10 -85 -13 -55 -4 -91 -11 -100 -21 -8 -8 -24 -12 -35 -9 -16 4 -23 0 -27
-16 -3 -11 -10 -18 -15 -15 -7 4 -8 -15 -3 -56 6 -55 5 -62 -9 -57 -29 11 -43
-36 -20 -71 12 -19 13 -23 1 -28 -15 -5 -11 -54 4 -54 5 0 9 -7 9 -15 0 -8 -6
-15 -12 -15 -9 0 -8 -4 2 -10 10 -6 11 -10 3 -10 -7 0 -13 -4 -13 -10 0 -5 7
-10 15 -10 8 0 15 -7 15 -15 0 -21 20 -19 21 3 0 14 2 14 7 2 4 -8 18 -14 32
-13 14 0 33 1 43 2 10 1 16 5 13 10 -7 10 42 57 50 48 4 -4 1 -14 -7 -23 -12
-15 -10 -16 27 -10 33 6 43 4 47 -8 4 -10 1 -16 -8 -16 -26 0 -16 -29 13 -36
15 -4 37 -14 50 -22 12 -8 31 -12 42 -9 11 3 26 0 33 -6 16 -16 25 -17 104
-18 36 -1 68 3 72 9 3 5 17 13 30 17 23 7 33 14 65 42 7 6 57 13 113 15 56 1
104 6 108 10 4 4 8 18 9 32 1 18 7 26 20 26 15 0 16 3 6 15 -7 8 -16 12 -21
10 -8 -6 -29 26 -29 44 0 20 29 11 32 -10 l3 -21 19 21 c19 21 19 21 -2 21
-12 0 -22 4 -22 10 0 5 -7 7 -16 3 -9 -3 -20 0 -25 8 -7 11 -9 11 -9 -3 0 -13
-8 -18 -29 -18 -17 0 -36 8 -43 18 -7 9 -23 17 -35 18 -13 0 -40 2 -60 3 -38
3 -38 3 -8 10 27 6 25 8 -23 14 -29 4 -57 5 -62 2 -6 -3 -10 -2 -10 2 0 5 -16
8 -35 7 -19 -1 -35 2 -35 7 0 5 -19 9 -42 9 -24 0 -53 3 -65 6 -25 7 -31 24
-9 24 7 0 16 9 19 20 3 13 14 20 30 20 14 0 27 5 29 11 5 15 231 15 236 0 2
-6 8 -11 14 -11 5 0 24 -6 41 -14 18 -8 40 -17 50 -20 10 -3 16 -9 14 -13 -7
-12 11 -53 23 -53 5 0 10 7 10 15 0 15 34 38 43 29 12 -13 47 8 47 28 0 22
-35 58 -57 58 -7 0 -13 5 -13 10 0 6 -10 15 -22 20 -14 5 -17 9 -8 10 16 1
-39 24 -102 43 -21 6 -38 14 -38 19 0 4 -27 10 -60 14 -33 3 -57 10 -54 15 3
5 -28 9 -70 9 -46 0 -76 -4 -78 -11z"/>
<path d="M2295 3009 c-11 -4 -14 -8 -7 -8 7 -1 10 -6 6 -13 -5 -8 -2 -9 10 -5
11 4 15 3 11 -4 -4 -6 2 -13 12 -15 17 -5 19 -14 19 -82 l-1 -77 -60 3 c-33 2
-65 8 -72 14 -9 7 -17 5 -28 -6 -21 -21 -28 -20 -23 2 4 15 -3 17 -76 14 -84
-3 -136 -18 -136 -39 0 -7 -5 -13 -11 -13 -5 0 -7 5 -4 10 3 6 1 10 -4 10 -6
0 -11 -6 -11 -12 1 -22 26 -48 46 -48 14 0 16 -2 6 -9 -10 -6 -6 -10 15 -15
33 -9 63 -38 63 -62 0 -10 3 -14 6 -11 4 3 14 2 24 -3 11 -6 26 -4 44 6 16 8
35 14 42 14 8 0 14 4 14 9 0 5 33 19 73 32 39 13 78 28 85 34 40 31 72 66 72
79 0 8 8 17 18 19 16 4 16 5 0 6 -10 0 -18 6 -18 12 0 6 7 9 15 5 10 -4 15 1
15 15 0 11 -7 22 -15 25 -8 4 -12 10 -9 15 3 5 0 9 -5 9 -6 0 -11 7 -11 15 0
8 -6 15 -14 15 -7 0 -16 9 -19 21 -4 13 -10 18 -18 13 -7 -4 -10 -3 -5 4 9 16
-25 31 -49 21z"/>
<path d="M1770 2944 c0 -10 -5 -14 -16 -10 -8 3 -12 2 -9 -4 3 -6 2 -10 -4
-10 -6 0 -17 -12 -25 -27 -8 -16 -15 -21 -16 -13 0 17 -35 -50 -44 -85 -4 -16
-11 -23 -18 -19 -7 5 -9 0 -6 -14 4 -15 2 -22 -8 -22 -8 0 -14 -6 -14 -14 0
-8 -6 -17 -12 -20 -10 -5 -10 -7 0 -12 6 -3 9 -10 6 -16 -12 -20 -5 -71 10
-80 9 -5 16 -21 16 -36 0 -19 3 -23 9 -14 7 11 9 11 14 -2 11 -29 27 -17 27
20 0 20 -4 33 -10 29 -5 -3 -9 9 -8 29 1 19 4 34 7 33 6 -2 33 20 87 70 13 12
24 26 24 31 0 6 7 12 15 16 8 3 15 12 15 20 0 8 6 17 13 19 9 4 9 8 -2 15 -9
7 -16 34 -19 71 -3 43 -8 61 -18 61 -8 0 -14 -7 -14 -16z"/>
<path d="M235 1804 c-11 -14 -25 -31 -32 -39 -7 -7 -9 -16 -5 -19 3 -4 -4 -9
-16 -13 -12 -3 -22 -10 -22 -15 0 -5 6 -6 13 -3 6 4 3 -1 -7 -9 -18 -14 -15
-21 7 -17 4 0 7 -6 7 -14 0 -8 6 -15 14 -15 14 0 29 -37 20 -52 -3 -4 -12 -8
-20 -8 -8 0 -14 -7 -14 -15 0 -8 5 -15 11 -15 5 0 7 -4 4 -10 -3 -5 -1 -10 4
-10 6 0 11 5 11 10 0 6 6 10 14 10 8 0 17 8 19 18 3 9 5 3 6 -15 0 -17 7 -34
14 -36 9 -4 8 -8 -3 -17 -12 -9 -9 -10 14 -5 24 5 26 4 15 -8 -8 -8 -21 -16
-29 -20 -12 -4 -11 -6 3 -6 11 -1 17 -9 17 -24 0 -16 -9 -26 -32 -35 -17 -6
-29 -14 -26 -17 3 -3 18 1 34 10 16 8 40 15 54 14 17 0 20 -3 10 -7 -8 -4 -14
-14 -14 -22 1 -8 2 -21 3 -27 1 -8 11 -11 31 -6 23 4 30 2 30 -11 0 -9 7 -16
15 -16 11 0 15 -12 15 -49 0 -45 -2 -49 -29 -54 -16 -3 -31 -12 -34 -20 -4
-11 0 -13 14 -10 10 3 17 9 14 13 -6 10 74 25 82 16 4 -3 1 -6 -5 -6 -7 0 -12
-13 -12 -30 0 -27 2 -29 30 -23 23 4 30 2 30 -11 0 -9 7 -16 15 -16 8 0 15 -7
15 -15 0 -8 7 -15 15 -15 8 0 15 7 15 15 0 8 -7 15 -15 15 -10 0 -15 10 -15
30 0 20 -5 30 -15 30 -8 0 -15 7 -15 15 0 8 -6 15 -14 15 -18 0 -29 42 -13 52
9 6 9 8 0 8 -6 0 -9 9 -6 20 3 11 9 17 14 14 5 -3 6 2 3 10 -7 19 12 22 19 4
4 -10 8 -9 16 2 7 10 11 11 11 3 0 -8 13 -13 31 -13 19 0 28 4 24 11 -4 6 -13
8 -21 5 -8 -3 -14 1 -14 10 0 8 5 12 10 9 6 -3 10 -1 10 6 0 6 -8 9 -19 6 -10
-2 -26 0 -35 5 -12 7 -16 5 -16 -6 0 -9 -13 -18 -35 -22 -19 -3 -35 -10 -35
-15 0 -5 -4 -9 -10 -9 -13 0 -13 47 -1 55 6 3 14 -3 20 -12 9 -16 12 -16 21
-3 5 8 10 23 10 34 0 15 -5 17 -27 11 -16 -3 -29 -11 -31 -16 -6 -15 -32 -10
-32 6 0 8 -7 15 -15 15 -16 0 -19 18 -17 83 2 36 -6 43 -48 39 -3 0 -7 10 -8
24 -1 13 2 24 7 24 5 0 16 3 24 6 10 3 17 -2 20 -13 3 -12 5 -9 6 10 0 15 -3
27 -8 27 -5 0 -16 3 -24 6 -8 3 -22 -2 -31 -12 -21 -21 -31 -12 -16 15 7 14 7
21 0 21 -5 0 -10 -6 -10 -14 0 -8 -5 -18 -12 -22 -7 -4 -8 -3 -4 4 4 7 2 12
-3 12 -6 0 -11 7 -11 15 0 8 -7 15 -15 15 -8 0 -15 5 -15 11 0 5 5 7 10 4 6
-3 10 -1 10 4 0 6 -4 11 -10 11 -5 0 -10 5 -10 11 0 5 5 7 10 4 9 -6 12 -2 14
28 1 6 11 21 23 33 13 12 20 24 16 27 -3 4 -1 7 5 7 7 0 12 5 12 10 0 17 -14
10 -35 -16z"/>
<path d="M182 358 c-2 -16 -8 -20 -29 -17 -5 1 -7 6 -5 13 1 6 -5 2 -13 -9 -9
-11 -14 -30 -12 -42 3 -17 -1 -23 -14 -23 -12 0 -19 -7 -19 -20 0 -11 -6 -20
-14 -20 -9 0 -12 7 -9 19 4 16 1 19 -15 14 -13 -3 -19 -10 -15 -19 3 -8 -5
-27 -18 -41 l-24 -26 37 6 c35 5 38 4 38 -19 0 -17 8 -27 24 -33 27 -11 43
-41 21 -41 -8 0 -15 -4 -15 -10 0 -5 7 -10 15 -10 16 0 19 -18 7 -36 -5 -9
-16 -9 -42 0 -28 10 -39 9 -57 -2 -13 -8 -23 -21 -23 -28 0 -17 37 -19 43 -1
4 9 7 9 18 -1 18 -17 117 -16 135 2 8 8 17 43 19 78 3 34 10 65 15 68 10 6 18
39 19 78 1 13 5 20 11 17 6 -3 10 -1 10 6 0 7 -11 10 -28 7 -25 -4 -28 -1 -24
19 3 16 0 23 -11 23 -10 0 -17 12 -20 33 -2 17 -5 24 -5 15z"/>
</g>
</svg>
