<svg width="198" height="39" viewBox="0 0 198 39" fill="none" xmlns="http://www.w3.org/2000/svg">
<path d="M19.8669 0.0356445L24.1327 13.1643H37.937L26.7691 21.2783L31.0349 34.407L19.8669 26.293L8.69902 34.407L12.9648 21.2783L1.79687 13.1643H15.6012L19.8669 0.0356445Z" fill="#D6FF63"/>
<path d="M58.8669 0.0356445L63.1327 13.1643H76.937L65.7691 21.2783L70.0349 34.407L58.8669 26.293L47.699 34.407L51.9648 21.2783L40.7969 13.1643H54.6012L58.8669 0.0356445Z" fill="#D6FF63"/>
<path d="M97.8669 0.0356445L102.133 13.1643H115.937L104.769 21.2783L109.035 34.407L97.8669 26.293L86.699 34.407L90.9648 21.2783L79.7969 13.1643H93.6012L97.8669 0.0356445Z" fill="#D6FF63"/>
<path d="M136.867 0.0356445L141.133 13.1643H154.937L143.769 21.2783L148.035 34.407L136.867 26.293L125.699 34.407L129.965 21.2783L118.797 13.1643H132.601L136.867 0.0356445Z" fill="#D6FF63"/>
<path d="M178.867 0.0356445L183.133 13.1643H196.937L185.769 21.2783L190.035 34.407L178.867 26.293L167.699 34.407L171.965 21.2783L160.797 13.1643H174.601L178.867 0.0356445Z" fill="#D6FF63"/>
</svg>
